<?xml version="1.0" standalone="no"?>
<!DOCTYPE svg PUBLIC "-//W3C//DTD SVG 20010904//EN"
 "http://www.w3.org/TR/2001/REC-SVG-20010904/DTD/svg10.dtd">
<svg version="1.0" xmlns="http://www.w3.org/2000/svg"
 width="512.000000pt" height="512.000000pt" viewBox="0 0 512.000000 512.000000"
 preserveAspectRatio="xMidYMid meet">
<metadata>
Created by potrace 1.11, written by Peter Selinger 2001-2013
</metadata>
<g transform="translate(0.000000,512.000000) scale(0.100000,-0.100000)"
fill="#000000" stroke="none">
<path d="M1418 4133 c-8 -10 -14 -10 -24 -2 -11 9 -14 8 -14 0 0 -7 -5 -9 -10
-6 -6 4 -17 1 -25 -5 -8 -7 -15 -9 -15 -6 0 4 -10 1 -22 -6 -13 -7 -26 -11
-30 -10 -5 1 -8 -2 -8 -8 0 -5 -6 -10 -14 -10 -7 0 -19 -7 -26 -15 -7 -8 -16
-12 -21 -9 -5 3 -9 -3 -9 -12 0 -10 -3 -14 -7 -11 -6 7 -86 -72 -110 -109 -7
-11 -24 -36 -38 -57 -14 -21 -25 -44 -25 -52 0 -8 -4 -15 -9 -15 -5 0 -11 -10
-14 -22 -3 -13 -12 -42 -21 -64 -27 -73 -56 -197 -64 -269 -9 -93 -9 -375 1
-446 16 -113 61 -243 114 -327 31 -49 135 -162 158 -171 41 -16 54 -25 48 -35
-3 -6 -3 -8 2 -4 4 4 20 -1 35 -12 15 -11 30 -17 34 -13 3 3 6 1 6 -6 0 -7 4
-10 9 -6 5 3 15 -1 23 -8 12 -12 37 -25 56 -28 22 -3 42 -21 35 -32 -4 -7 0
-7 10 2 13 10 17 10 17 1 0 -7 7 -10 16 -6 8 3 12 2 9 -4 -3 -6 -3 -10 2 -11
45 -4 95 -28 87 -41 -4 -7 -3 -8 5 -4 17 11 53 -3 45 -17 -4 -7 -4 -9 1 -5 4
4 14 3 22 -3 7 -6 13 -9 13 -5 0 8 33 -19 95 -79 52 -51 106 -142 121 -205 4
-19 9 -42 12 -50 2 -8 5 -71 7 -140 4 -135 -9 -240 -42 -330 -22 -62 -68 -140
-82 -140 -6 0 -13 -9 -16 -20 -3 -11 -11 -20 -16 -20 -6 0 -17 -7 -26 -15 -8
-8 -19 -13 -24 -9 -5 3 -8 0 -7 -8 2 -7 -3 -12 -11 -10 -8 2 -17 -2 -21 -9 -4
-6 -19 -11 -34 -11 -14 0 -26 -4 -26 -9 0 -4 -8 -6 -18 -4 -10 2 -25 0 -32 -5
-7 -5 -24 -4 -37 1 -14 5 -23 5 -23 -1 0 -6 -12 -2 -27 7 -15 10 -24 13 -20 6
5 -9 -1 -9 -25 0 -18 7 -35 14 -38 17 -3 3 -12 6 -20 8 -8 2 -16 8 -18 13 -2
5 -11 9 -19 9 -23 0 -117 104 -151 168 -29 55 -77 187 -87 241 -13 72 -23 168
-24 240 -1 43 -4 52 -16 47 -8 -3 -15 -1 -15 5 0 6 -6 7 -12 3 -17 -11 -48
-12 -54 -3 -2 5 -15 5 -27 1 -12 -4 -35 -7 -51 -6 l-28 1 6 -135 c3 -74 8
-144 11 -156 2 -11 7 -39 9 -61 17 -128 68 -300 121 -405 22 -43 113 -172 126
-178 3 -1 23 -18 44 -37 20 -19 42 -35 47 -35 5 0 7 -4 4 -8 -2 -4 5 -9 17 -9
12 -1 23 -7 25 -13 2 -5 10 -10 18 -10 8 0 14 -4 14 -9 0 -6 9 -8 20 -6 12 2
23 -2 26 -8 2 -7 20 -12 39 -12 19 1 32 -2 29 -6 -2 -4 14 -7 36 -6 22 2 40
-1 40 -6 0 -4 4 -6 9 -3 5 3 25 8 45 11 27 3 35 1 29 -8 -4 -7 0 -7 10 2 10 7
32 15 50 17 17 2 37 11 43 20 9 12 13 12 17 2 4 -11 6 -11 6 0 1 7 6 10 11 7
6 -3 10 -1 10 4 0 6 12 11 26 11 14 0 23 4 19 10 -3 5 0 10 8 10 8 0 22 9 32
20 10 11 25 20 33 20 9 0 13 2 10 5 -3 3 14 25 36 49 56 60 64 71 78 101 6 14
15 25 20 25 4 0 7 3 6 8 0 4 10 32 24 62 77 169 102 298 102 540 1 208 -5 280
-36 395 -23 89 -85 228 -117 261 -11 12 -18 24 -15 27 3 2 -9 16 -25 30 -16
13 -28 26 -26 28 6 6 -121 98 -150 109 -16 6 -23 14 -19 22 4 6 3 8 -4 4 -6
-3 -16 0 -24 7 -7 8 -19 12 -26 9 -6 -2 -12 1 -12 8 0 6 -4 9 -9 5 -5 -3 -16
2 -25 10 -8 9 -19 16 -23 17 -27 4 -43 12 -43 20 0 5 -5 6 -11 3 -5 -4 -19 1
-30 11 -10 9 -22 14 -26 11 -3 -4 -12 1 -20 11 -8 9 -12 11 -8 5 4 -8 1 -11
-9 -7 -8 3 -17 12 -20 20 -3 7 -12 11 -19 8 -8 -3 -21 2 -30 10 -8 8 -17 13
-19 10 -3 -2 -11 2 -18 11 -7 8 -16 15 -21 15 -23 0 -112 89 -145 146 -49 83
-64 162 -60 303 5 150 11 186 41 268 30 80 98 173 125 173 6 0 10 8 10 18 0
13 2 14 9 4 6 -10 10 -10 21 2 7 9 16 14 20 11 4 -3 13 2 20 10 7 8 18 15 24
15 6 0 4 -5 -4 -11 -12 -9 -11 -9 5 -3 35 13 145 14 145 1 0 -7 4 -6 10 3 5 8
10 10 10 4 0 -7 11 -15 25 -18 14 -4 25 -11 25 -17 0 -6 4 -7 10 -4 11 7 59
-25 60 -39 0 -4 11 -17 25 -27 35 -28 101 -167 119 -251 19 -90 24 -124 32
-215 6 -66 8 -71 25 -62 11 5 19 6 19 2 0 -6 86 -8 153 -4 5 1 6 49 2 109 -7
112 -10 142 -26 232 -14 81 -16 91 -30 140 -7 25 -14 52 -15 61 -5 24 -61 153
-86 196 -31 55 -128 174 -128 158 0 -5 -9 0 -20 11 -33 33 -47 42 -66 46 -11
2 -25 9 -32 16 -8 7 -18 10 -23 7 -5 -4 -9 -2 -9 3 0 5 -10 10 -22 10 -13 1
-53 5 -91 10 -53 7 -70 6 -79 -5z"/>
<path d="M3000 4142 c0 -4 -16 -7 -35 -7 -19 1 -35 -2 -35 -7 0 -4 -5 -8 -11
-8 -5 0 -7 5 -3 12 4 7 -8 1 -26 -12 -18 -13 -30 -17 -25 -9 6 10 2 9 -11 -3
-10 -9 -22 -16 -26 -15 -4 1 -16 -6 -27 -15 -11 -9 -22 -14 -25 -11 -3 3 -8
-2 -12 -11 -3 -9 -11 -16 -16 -16 -11 0 -128 -121 -128 -132 0 -4 -6 -13 -13
-20 -80 -81 -214 -424 -253 -648 -3 -14 -11 -61 -19 -105 -14 -78 -19 -113
-30 -225 -4 -30 -8 -73 -11 -95 -9 -73 -12 -589 -3 -665 4 -41 11 -102 15
-135 3 -33 8 -67 9 -76 2 -9 6 -38 9 -65 4 -27 22 -112 42 -189 38 -155 36
-149 52 -188 7 -16 12 -32 12 -37 0 -18 83 -205 102 -229 10 -13 18 -29 18
-37 0 -7 3 -14 8 -16 8 -4 52 -64 52 -73 0 -17 150 -165 168 -165 6 0 12 -3
12 -7 0 -12 52 -33 63 -26 6 3 7 1 3 -5 -4 -8 0 -12 11 -12 11 0 24 -5 31 -12
9 -9 12 -9 12 1 0 9 4 8 15 -3 10 -10 35 -14 84 -14 38 0 74 -3 81 -7 9 -5 11
-4 6 3 -4 7 -1 13 8 13 16 1 28 4 44 9 4 1 10 2 15 1 4 0 7 4 7 10 0 5 4 8 9
4 5 -3 12 -1 16 5 4 6 11 8 16 5 5 -4 9 -2 9 3 0 5 13 15 30 22 16 7 27 16 24
21 -3 5 1 9 9 9 8 0 31 16 50 35 19 19 33 35 30 35 -2 0 7 10 20 23 35 33 118
180 140 247 7 21 13 -9 38 -190 20 -142 36 -219 39 -180 0 13 1 13 10 0 8 -12
10 -12 10 -1 0 11 5 10 20 -4 15 -14 19 -15 15 -4 -4 10 1 15 14 15 11 0 18
-3 15 -7 -2 -4 4 -6 13 -5 17 3 18 50 21 828 l2 826 -30 4 c-17 3 -33 2 -35
-2 -2 -4 -26 -4 -52 0 -27 3 -60 3 -73 -1 -14 -3 -30 -2 -37 3 -7 5 -14 5 -17
-1 -4 -7 -15 -7 -31 -1 -13 5 -26 6 -29 1 -3 -4 -27 -5 -53 -1 -27 3 -60 3
-73 -1 -14 -3 -30 -2 -37 3 -7 5 -14 5 -17 -1 -4 -7 -15 -7 -31 -1 -13 5 -26
6 -29 1 -3 -4 -27 -5 -53 -2 -99 12 -93 24 -93 -179 l0 -178 28 -4 c15 -2 38
-1 52 2 14 4 30 3 37 -2 7 -5 14 -5 17 1 4 7 15 7 31 1 13 -5 26 -6 29 -1 3 4
27 5 53 1 27 -3 60 -3 73 1 14 3 30 2 37 -3 7 -5 14 -5 17 1 4 7 15 7 31 1 13
-5 27 -6 29 -1 3 4 19 6 37 3 l32 -5 -6 -141 c-14 -311 -102 -606 -217 -727
-20 -21 -35 -39 -33 -39 3 0 -9 -11 -25 -25 -17 -14 -35 -25 -41 -25 -6 0 -11
-4 -11 -8 0 -4 -16 -15 -35 -24 -20 -9 -35 -11 -35 -5 0 5 -9 0 -20 -13 -11
-13 -20 -18 -20 -12 0 11 -50 9 -69 -2 -5 -4 -12 -2 -15 3 -4 5 -14 8 -24 6
-9 -1 -22 2 -28 7 -7 5 -16 8 -20 7 -18 -3 -74 26 -74 39 0 7 -5 10 -10 7 -12
-7 -110 93 -110 113 0 6 -4 12 -10 12 -5 0 -19 19 -31 43 -11 23 -30 60 -41
82 -21 40 -84 216 -92 258 -12 55 -37 183 -41 206 -4 26 -10 80 -25 226 -8 78
-5 510 4 590 3 22 8 65 11 95 18 158 51 316 90 435 33 101 96 238 132 284 35
46 125 131 139 131 8 0 14 5 14 11 0 6 7 9 15 5 8 -3 15 -1 15 5 0 6 4 8 8 5
5 -3 20 1 35 9 15 8 27 11 27 7 0 -4 28 -7 63 -7 155 -1 299 -139 375 -360 27
-78 59 -241 61 -309 1 -25 3 -27 18 -15 11 10 14 10 9 2 -4 -7 -2 -13 3 -13 6
0 11 6 11 13 0 8 4 7 10 -3 5 -8 10 -10 10 -4 0 6 6 11 14 11 8 0 12 -7 9 -16
-4 -14 -3 -14 9 -1 9 12 23 14 51 9 24 -4 37 -2 37 5 0 6 4 5 9 -2 13 -21 21
10 16 58 -3 22 -7 57 -9 78 -9 77 -28 179 -42 237 -9 33 -17 67 -19 75 -6 31
-57 165 -66 175 -5 5 -9 15 -9 23 0 15 -80 155 -92 160 -5 2 -8 9 -8 16 0 6
-9 18 -19 26 -11 7 -18 17 -15 21 2 4 -4 10 -15 14 -11 3 -21 12 -24 19 -3 7
-35 34 -72 60 -36 25 -63 41 -59 34 4 -7 -1 -6 -12 3 -10 9 -25 14 -31 12 -7
-3 -13 1 -13 7 0 7 -8 10 -20 7 -14 -4 -20 0 -20 11 0 15 -2 15 -10 2 -5 -8
-10 -10 -10 -3 0 6 -9 9 -20 6 -11 -3 -20 0 -20 6 0 7 -8 8 -22 2 -13 -5 -33
-5 -45 0 -13 5 -23 5 -23 1z"/>
<path d="M650 4136 c0 -3 -9 -50 -20 -105 -11 -56 -22 -116 -25 -134 -3 -17
-10 -48 -15 -67 -5 -19 -11 -51 -14 -70 -3 -19 -8 -46 -11 -60 -5 -25 -22
-113 -31 -160 -4 -20 -20 -98 -39 -190 -3 -18 -35 -184 -41 -220 -3 -14 -9
-41 -14 -60 -5 -19 -11 -52 -14 -72 -3 -21 -10 -57 -15 -80 -6 -24 -13 -59
-16 -78 -3 -19 -17 -91 -31 -160 -31 -158 -33 -170 -39 -200 -2 -14 -32 -162
-65 -330 -33 -168 -63 -318 -66 -335 -2 -16 -7 -37 -9 -45 -2 -8 -7 -28 -9
-45 -3 -16 -10 -55 -16 -85 -6 -30 -13 -66 -16 -80 -31 -162 -60 -307 -81
-410 -13 -69 -27 -138 -30 -155 -2 -16 -11 -56 -18 -88 -12 -53 -11 -61 7 -58
5 0 8 -3 8 -7 0 -7 46 -6 117 0 7 1 15 8 17 17 5 17 72 357 81 406 2 17 18 98
35 180 17 83 33 161 35 175 4 22 160 811 171 865 2 11 6 31 9 45 6 36 125 639
201 1020 35 179 66 334 68 345 2 11 13 69 25 128 12 59 21 110 21 113 0 2 -36
4 -80 4 -44 0 -80 -2 -80 -4z"/>
<path d="M4134 4061 c-2 -3 -27 -4 -54 -2 l-50 2 0 -1569 c0 -863 2 -1571 6
-1574 3 -3 20 -2 38 2 19 4 40 4 47 0 7 -5 22 -5 34 0 12 5 27 5 34 0 7 -4 22
-5 32 -3 18 5 19 28 19 724 l0 719 38 -2 c22 0 44 2 50 6 6 3 13 2 17 -3 3 -5
15 -8 27 -6 21 4 37 5 118 4 19 0 44 2 55 4 11 3 28 0 37 -4 10 -5 28 -5 43 1
17 7 24 7 20 0 -4 -6 2 -7 17 -1 15 5 31 5 41 0 11 -7 17 -6 17 1 0 7 6 8 19
1 11 -7 30 -7 50 -1 17 5 33 5 36 0 3 -5 15 -7 27 -5 32 7 81 8 96 4 11 -3 14
27 13 156 0 238 3 216 -23 206 -13 -5 -32 -5 -43 -1 -11 4 -30 3 -43 -1 -13
-5 -21 -6 -19 -1 3 4 -42 7 -99 7 -57 0 -104 -3 -104 -7 0 -4 -11 -3 -25 2
-15 6 -26 6 -30 -1 -4 -5 -11 -6 -17 -3 -12 8 -102 9 -114 2 -5 -3 -18 -2 -29
2 -11 4 -30 3 -43 -1 -15 -6 -21 -5 -17 1 4 7 -2 7 -18 1 -14 -6 -28 -7 -31
-3 -4 3 -19 6 -34 7 l-27 0 -3 489 -2 488 30 -4 c17 -3 32 -2 34 1 2 3 45 4
96 1 50 -3 95 -1 99 3 5 5 12 4 15 -1 4 -7 17 -7 36 -2 16 5 32 5 34 1 5 -7
80 -5 102 3 6 2 15 2 18 -1 7 -7 74 -9 80 -2 2 2 45 2 96 -1 50 -3 95 -1 99 3
5 5 11 5 14 0 4 -6 20 -8 37 -5 22 3 30 10 31 26 3 72 1 327 -2 331 -6 6 -234
9 -245 3 -8 -4 -27 -3 -39 2 -6 2 -73 2 -80 0 -3 -1 -21 -2 -40 -2 -19 0 -37
1 -40 2 -7 2 -73 2 -82 0 -5 -1 -11 -2 -15 -1 -12 1 -173 3 -180 1 -10 -2
-117 -2 -120 0 -8 4 -80 4 -84 1z"/>
</g>
</svg>
